COSMETIC_dedrift_NOT_METROLOGICALLY_VALID
# WARNING: cosmetic drift-bounding for visualisation only.
# These joint angles are NOT accurate. Do not analyse, report, or publish.
version=1
nRows=26
nColumns=40
inDegrees=yes
endheader
time	pelvis_tilt	pelvis_list	pelvis_rotation	pelvis_tx	pelvis_ty	pelvis_tz	hip_flexion_r	hip_adduction_r	hip_rotation_r	knee_angle_r	knee_angle_r_beta	ankle_angle_r	subtalar_angle_r	mtp_angle_r	hip_flexion_l	hip_adduction_l	hip_rotation_l	knee_angle_l	knee_angle_l_beta	ankle_angle_l	subtalar_angle_l	mtp_angle_l	lumbar_extension	lumbar_bending	lumbar_rotation	arm_flex_r	arm_add_r	arm_rot_r	elbow_flex_r	pro_sup_r	wrist_flex_r	wrist_dev_r	arm_flex_l	arm_add_l	arm_rot_l	elbow_flex_l	pro_sup_l	wrist_flex_l	wrist_dev_l
695.825	-3.911872	1.730302	120.000000	0.000000	0.940000	0.000000	-14.046644	-2.700477	-5.687325	8.816618	0.153879	23.097957	0.000000	0.000000	-0.481725	-11.559152	-0.908346	5.095472	0.088933	10.180579	0.000000	0.000000	-4.898781	0.541808	7.509112	-2.582902	-1.141784	0.703417	0.000000	44.999996	0.000000	0.000000	5.365260	-5.794956	14.721441	0.283589	44.999996	0.000000	0.000000
695.85	-2.849853	0.912910	120.000000	0.000000	0.940000	0.000000	-11.856110	-2.591882	-2.650703	6.808106	0.118824	27.851398	0.000000	0.000000	0.356457	-10.958848	-0.995033	4.746510	0.082842	9.395303	0.000000	0.000000	-3.041202	0.245391	7.124807	-2.800201	-1.122452	0.638135	0.000000	44.999996	0.000000	0.000000	4.062351	-4.502396	11.775922	0.276799	44.999996	0.000000	0.000000
695.875	-1.819704	0.237826	120.000000	0.000000	0.940000	0.000000	-9.801047	-2.112329	0.905771	4.582922	0.079987	32.321771	0.000000	0.000000	0.797795	-10.914829	-0.196265	4.766640	0.083194	8.155103	0.000000	0.000000	-1.670910	-0.262396	6.236670	-3.031218	-0.865299	0.165203	0.000000	44.999996	0.000000	0.000000	2.802259	-3.251456	8.746860	0.275622	44.999996	0.000000	0.000000
695.9	-0.855621	0.005169	120.000000	0.000000	0.940000	0.000000	-8.214998	-1.227229	5.034642	1.989136	0.034717	36.452005	0.000000	0.000000	0.679252	-12.583426	0.931041	5.947846	0.103809	7.013680	0.000000	0.000000	-0.125074	-0.353189	4.924013	-3.176855	-0.730554	-0.391382	0.000000	44.999996	0.000000	0.000000	1.485622	-1.780278	5.856868	0.277869	44.999996	0.000000	0.000000
695.925	0.275766	0.005169	120.000000	0.000000	0.940000	0.000000	-6.388323	0.105444	8.467409	-0.230463	-0.004022	39.638997	0.000000	0.000000	1.097085	-11.858114	-0.128513	6.304586	0.110036	4.195006	0.000000	0.000000	-0.114979	-0.668590	3.929274	-3.129294	-0.428839	-1.438689	0.000000	44.999996	0.000000	0.000000	0.396400	-0.148166	3.976967	0.283248	44.999996	0.000000	0.000000
695.95	0.275766	0.005169	120.000000	0.000000	0.940000	0.000000	-5.793049	0.105444	9.859930	-0.405677	-0.007080	40.000000	0.000000	0.000000	3.746586	-10.244641	1.395403	4.739624	0.082722	1.779974	0.000000	0.000000	0.570793	-0.752370	2.078476	-2.205922	0.160611	-2.209013	0.000000	44.999996	0.000000	0.000000	0.015028	1.337729	2.565347	0.287998	44.999996	0.000000	0.000000
695.975	0.651143	0.005169	120.000000	0.000000	0.940000	0.000000	-4.658062	0.105444	11.272832	-1.019024	-0.017785	40.000000	0.000000	0.000000	5.646515	-7.305074	2.649212	2.773693	0.048410	-0.793349	0.000000	0.000000	1.185532	-0.442900	-0.305842	-0.253836	0.946891	-2.183370	0.000000	44.999996	0.000000	0.000000	0.481341	2.790641	1.152162	0.288406	44.999996	0.000000	0.000000
696	1.114094	0.005169	120.000000	0.000000	0.940000	0.000000	-3.962866	0.105444	11.576229	-2.663184	-0.046481	40.000000	0.000000	0.000000	6.131410	-6.305966	3.380220	2.679909	0.046773	-4.360701	0.000000	0.000000	1.544595	-0.531169	-3.177957	1.864752	1.789536	-1.536527	0.000000	44.999996	0.000000	0.000000	0.546935	3.965188	-0.760553	0.282285	44.999996	0.000000	0.000000
696.025	1.339309	0.005169	120.000000	0.000000	0.940000	0.000000	-3.139138	0.368631	11.181089	-3.600038	-0.062833	39.667172	0.000000	0.000000	5.193998	-5.071406	3.299514	3.053112	0.053287	-9.102311	0.000000	0.000000	1.787473	-0.735945	-7.061321	2.285156	1.600392	-1.180212	0.000000	44.999996	0.000000	0.000000	0.772842	5.689700	-2.907675	0.275611	44.999996	0.000000	0.000000
696.05	1.609733	-0.677039	120.000000	0.000000	0.940000	0.000000	-1.826585	0.523867	11.439543	-4.005628	-0.069911	40.000000	0.000000	0.000000	3.466903	-3.191498	2.809454	3.310891	0.057786	-12.319834	0.000000	0.000000	2.255386	-0.888494	-10.212745	2.011236	1.277223	-1.022730	0.000000	44.999996	0.000000	0.000000	0.423754	6.675600	-5.741519	0.274808	44.999996	0.000000	0.000000
696.075	2.112043	-1.306424	120.000000	0.000000	0.940000	0.000000	0.687401	-0.157744	11.373518	-6.802745	-0.118730	34.764334	0.000000	0.000000	1.143729	-1.416836	2.191997	3.484829	0.060822	-12.135719	0.000000	0.000000	3.191934	-0.764295	-12.866874	1.821177	0.892110	-0.481120	0.888998	44.999996	0.000000	0.000000	-0.313772	8.337969	-7.963416	0.274857	44.999996	0.000000	0.000000
696.1	3.383298	-1.307057	120.000000	0.000000	0.940000	0.000000	0.687401	-0.312980	11.635699	-8.827875	-0.154075	29.888202	0.000000	0.000000	-0.448447	-0.244324	0.831926	2.754508	0.048075	-11.443652	0.000000	0.000000	5.016690	-0.426805	-14.702392	1.226310	0.044688	0.309640	12.466586	44.999996	0.000000	0.000000	-1.101192	11.065469	-8.718536	0.274697	44.999996	0.000000	0.000000
696.125	5.179202	-1.049053	120.000000	0.000000	0.940000	0.000000	0.687401	0.571738	12.974247	-11.551628	-0.201614	24.407756	0.000000	0.000000	-0.892324	-0.300939	-1.758744	1.585150	0.027666	-13.094292	0.000000	0.000000	7.248015	0.490826	-15.781620	0.742401	-1.214267	1.261189	19.942463	44.999996	0.000000	0.000000	-1.880537	12.477508	-8.824485	0.273170	44.999996	0.000000	0.000000
696.15	7.400990	-0.362543	120.000000	0.000000	0.940000	0.000000	0.687401	3.336188	13.411313	-12.335116	-0.215288	20.821363	0.000000	0.000000	-0.307239	-0.783628	-3.971674	1.048139	0.018293	-18.123331	0.000000	0.000000	9.695694	1.414525	-15.953407	0.165004	-2.320014	1.468398	26.676917	44.999996	0.000000	0.000000	-3.134683	13.225559	-8.496341	0.275464	44.999996	0.000000	0.000000
696.175	8.153243	0.641500	120.000000	0.000000	0.940000	0.000000	2.232263	3.381270	12.743552	-12.134927	-0.211794	16.026517	0.000000	0.000000	-2.556123	-0.641736	-6.223827	1.275744	0.022266	-23.419784	0.000000	0.000000	10.448661	1.803485	-15.886625	-0.763457	-2.992332	1.142086	37.978148	44.999996	0.000000	0.000000	-4.821955	12.631846	-8.262308	0.282302	44.999996	0.000000	0.000000
696.2	9.544387	0.681676	120.000000	0.000000	0.940000	0.000000	0.687401	1.826601	8.289236	-8.036957	-0.140271	13.598753	0.000000	0.000000	-3.943130	-0.300939	-8.234412	0.635477	0.011091	-28.640563	0.000000	0.000000	12.007109	1.669400	-15.539586	-2.109270	-3.331943	0.456139	43.159347	44.999996	0.000000	0.000000	-6.716407	11.410752	-8.268027	0.294635	44.999996	0.000000	0.000000
696.225	11.172611	0.031133	120.000000	0.000000	0.940000	0.000000	-0.857461	1.151448	5.471718	-5.806265	-0.101338	12.716124	0.000000	0.000000	-4.272582	-0.300939	-9.082847	-0.384819	-0.006716	-33.263844	0.000000	0.000000	13.690885	1.086006	-15.588422	-3.360546	-3.163951	0.116564	47.947671	44.999996	0.000000	0.000000	-7.736600	9.757576	-8.903527	0.363605	44.999996	0.000000	0.000000
696.25	12.183323	-0.686286	120.000000	0.000000	0.940000	0.000000	0.687401	1.996043	6.567020	-7.228851	-0.126167	12.079774	0.000000	0.000000	-5.015246	-0.300939	-8.831953	-0.384819	-0.006716	-35.330712	0.000000	0.000000	14.786498	-0.010986	-15.594217	-5.131282	-2.862624	-0.040867	54.323150	44.999996	0.000000	0.000000	-8.505609	8.055422	-10.049396	0.450287	44.999996	0.000000	0.000000
696.275	11.983158	-1.570348	120.000000	0.000000	0.940000	0.000000	0.687401	2.883899	6.926835	-8.900510	-0.155343	11.183741	0.000000	0.000000	-6.484838	-0.300939	-7.641212	-1.011303	-0.017651	-35.421466	0.000000	0.000000	14.624564	-0.333349	-15.399418	-6.657784	-2.527271	0.022100	56.933926	44.999996	0.000000	0.000000	-9.122912	6.398047	-11.027114	0.600756	44.999996	0.000000	0.000000
696.3	11.828799	-2.189543	120.000000	0.000000	0.940000	0.000000	0.687401	2.562247	5.710100	-8.282007	-0.144548	10.355098	0.000000	0.000000	-8.835723	-0.300939	-5.250677	-0.384819	-0.006716	-29.885629	0.000000	0.000000	14.758197	-0.529315	-14.765998	-7.940138	-2.416577	-0.018713	58.709058	44.999996	0.000000	0.000000	-9.987175	5.084378	-11.036213	1.115120	44.999996	0.000000	0.000000
696.325	11.920519	-2.455088	120.000000	0.000000	0.940000	0.000000	1.961998	2.501931	4.175018	-8.153105	-0.142299	9.122437	0.000000	0.000000	-10.419949	-0.286042	-2.411012	0.217570	0.003797	-22.038865	0.000000	0.000000	15.122336	-0.911686	-14.299877	-9.001600	-2.291476	-0.326849	59.477515	44.999996	0.000000	0.000000	-11.396518	3.479853	-9.879537	2.117700	44.999996	0.000000	0.000000
696.35	11.811966	-2.479580	120.000000	0.000000	0.940000	0.000000	2.350260	2.573818	0.739778	-7.558493	-0.131921	7.830803	0.000000	0.000000	-12.921239	-0.014665	-0.653077	-0.360724	-0.006296	-16.696799	0.000000	0.000000	15.240058	-1.163797	-13.798450	-9.928439	-2.343509	-0.629896	59.670934	44.999996	0.000000	0.000000	-11.452231	2.431569	-7.103701	1.959488	44.999996	0.000000	0.000000
696.375	11.841988	-2.294818	120.000000	0.000000	0.940000	0.000000	1.194752	2.587713	-1.958668	-6.135296	-0.107081	6.857534	0.000000	0.000000	-11.617146	-0.081402	0.280966	-2.057742	-0.035914	-12.004076	0.000000	0.000000	15.192340	-1.020773	-13.447294	-10.231779	-2.392607	-0.650939	59.165310	44.999996	0.000000	0.000000	-10.759942	1.520094	-3.761961	1.214838	44.999996	0.000000	0.000000
696.4	11.960505	-2.027265	120.000000	0.000000	0.940000	0.000000	1.734292	2.907190	-3.970459	-5.430044	-0.094772	5.422820	0.000000	0.000000	-10.097873	-0.243851	1.512244	-3.915108	-0.068332	-6.768893	0.000000	0.000000	15.005095	-0.695023	-12.890118	-9.779260	-2.424676	-0.293935	57.788963	44.999996	0.000000	0.000000	-10.660566	-0.095939	-1.263562	1.112134	44.999996	0.000000	0.000000
696.425	12.105445	-1.807515	120.000000	0.000000	0.940000	0.000000	2.258012	3.142954	-5.292122	-4.686094	-0.081788	3.932673	0.000000	0.000000	-7.669903	-0.300939	3.344454	-5.378682	-0.093876	-0.793349	0.000000	0.000000	14.795608	-0.094427	-12.575057	-8.823331	-2.561152	0.330041	55.505277	44.999996	0.000000	0.000000	-10.588595	-1.317527	-0.094212	1.198718	44.999996	0.000000	0.000000
696.45	11.797186	-1.665223	120.000000	0.000000	0.940000	0.000000	3.114613	3.267597	-6.448000	-4.216603	-0.073594	2.086532	0.000000	0.000000	-4.485823	-0.111676	5.202470	-6.719739	-0.117282	5.544639	0.000000	0.000000	14.271173	0.367740	-12.448869	-7.479694	-2.829342	1.129144	52.091585	44.999996	0.000000	0.000000	-10.307752	-2.647542	-0.266776	1.378302	44.999996	0.000000	0.000000
